<svg xmlns="http://www.w3.org/2000/svg" width="153" height="52" viewBox="0 0 153 52" role="img" aria-labelledby="title desc"><title id="title">Edilcare</title><desc id="desc">Mantenimiento Edilicio</desc><g fill="#1F3D30"><path d="M14.937 23.333L13.230 23.333Q13.230 21.998 12.842 21.409Q12.454 20.819 11.724 20.695Q10.995 20.571 9.971 20.602L9.971 20.602L8.698 20.664L8.698 26.406Q8.698 27.244 8.667 27.943Q8.636 28.641 8.574 29.044L8.574 29.044L13.323 29.013Q14.409 29.013 15.309 28.594Q16.210 28.175 16.768 27.167Q17.327 26.158 17.327 24.420L17.327 24.420L19.034 24.420L18.879 31L2.614 31L2.614 29.293Q3.483 29.262 3.949 28.998Q4.414 28.734 4.601 28.067Q4.787 27.399 4.787 26.220L4.787 26.220L4.787 13.835Q4.787 13.059 4.833 12.345Q4.880 11.631 4.911 11.228L4.911 11.228Q4.383 11.259 3.700 11.274Q3.018 11.290 2.614 11.321L2.614 11.321L2.614 9.272L17.917 9.272L18.103 15.108L16.396 15.108Q16.396 13.338 15.822 12.454Q15.247 11.569 14.347 11.259Q13.447 10.948 12.485 10.979L12.485 10.979L10.871 11.010Q10.033 11.041 9.567 11.290Q9.101 11.538 8.900 12.174Q8.698 12.811 8.698 14.052L8.698 14.052L8.698 18.801L13.044 18.832L12.888 16.132L14.937 16.132L14.937 23.333ZM21.176 31L21.176 29.293Q22.045 29.262 22.511 28.998Q22.976 28.734 23.163 28.067Q23.349 27.399 23.349 26.220L23.349 26.220L23.349 13.835Q23.349 13.059 23.395 12.345Q23.442 11.631 23.473 11.228L23.473 11.228Q22.945 11.259 22.262 11.274Q21.580 11.290 21.176 11.321L21.176 11.321L21.176 9.272L29.619 9.241Q32.599 9.241 34.880 10.064Q37.162 10.886 38.683 12.376Q40.204 13.866 40.995 15.821Q41.787 17.777 41.787 20.012L41.787 20.012Q41.787 21.967 41.088 23.923Q40.390 25.878 38.946 27.477Q37.503 29.076 35.222 30.038Q32.940 31 29.805 31L29.805 31L21.176 31ZM27.260 14.021L27.260 26.375Q27.260 27.213 27.229 27.927Q27.198 28.641 27.136 29.044L27.136 29.044Q27.632 29.044 28.222 29.060Q28.812 29.076 29.371 29.091Q29.929 29.107 30.209 29.107L30.209 29.107Q32.009 29.107 33.375 28.393Q34.740 27.679 35.656 26.468Q36.572 25.258 37.037 23.690Q37.503 22.123 37.503 20.384L37.503 20.384Q37.503 17.311 36.556 15.247Q35.610 13.183 33.840 12.112Q32.071 11.041 29.464 11.010L29.464 11.010Q28.595 10.979 28.098 11.259Q27.601 11.538 27.431 12.190Q27.260 12.842 27.260 14.021L27.260 14.021ZM52.061 9.272L52.061 10.979Q51.223 11.010 50.742 11.274Q50.260 11.538 50.074 12.190Q49.888 12.842 49.888 14.052L49.888 14.052L49.888 26.375Q49.888 27.213 49.857 27.927Q49.826 28.641 49.764 29.044L49.764 29.044Q50.292 29.013 50.974 28.982Q51.657 28.951 52.061 28.951L52.061 28.951L52.061 31L43.804 31L43.804 29.293Q44.673 29.262 45.139 28.998Q45.604 28.734 45.791 28.067Q45.977 27.399 45.977 26.220L45.977 26.220L45.977 13.835Q45.977 13.059 46.024 12.345Q46.070 11.631 46.101 11.228L46.101 11.228Q45.573 11.259 44.891 11.274Q44.208 11.290 43.804 11.321L43.804 11.321L43.804 9.272L52.061 9.272ZM70.654 31L54.513 31L54.513 29.293Q55.382 29.262 55.848 28.998Q56.313 28.734 56.500 28.067Q56.686 27.399 56.686 26.220L56.686 26.220L56.686 13.835Q56.686 13.059 56.732 12.345Q56.779 11.631 56.810 11.228L56.810 11.228Q56.282 11.259 55.599 11.274Q54.916 11.290 54.513 11.321L54.513 11.321L54.513 9.272L62.770 9.272L62.770 10.979Q61.932 11.010 61.450 11.274Q60.969 11.538 60.783 12.190Q60.597 12.842 60.597 14.052L60.597 14.052L60.597 26.406Q60.597 27.244 60.566 27.943Q60.535 28.641 60.473 29.044L60.473 29.044L65.191 29.013Q67.053 29.013 68.077 27.756Q69.102 26.499 69.102 23.892L69.102 23.892L70.840 23.892L70.654 31ZM90.302 16.225L88.595 16.225Q88.222 13.524 86.764 12.112Q85.305 10.700 82.977 10.700L82.977 10.700Q81.332 10.700 80.043 11.429Q78.755 12.159 77.871 13.416Q76.986 14.673 76.520 16.334Q76.055 17.994 76.055 19.888L76.055 19.888Q76.055 22.650 76.939 24.761Q77.824 26.872 79.423 28.082Q81.021 29.293 83.163 29.293L83.163 29.293Q85.149 29.293 87.089 28.315Q89.029 27.337 90.302 25.537L90.302 25.537L91.575 26.685Q90.116 28.672 88.471 29.712Q86.826 30.752 85.258 31.124Q83.691 31.497 82.418 31.497L82.418 31.497Q80.028 31.497 78.088 30.643Q76.148 29.789 74.736 28.284Q73.323 26.779 72.563 24.776Q71.802 22.774 71.802 20.446L71.802 20.446Q71.802 18.305 72.470 16.225Q73.137 14.145 74.487 12.469Q75.837 10.793 77.886 9.784Q79.935 8.775 82.635 8.775L82.635 8.775Q84.001 8.775 85.491 9.194Q86.981 9.613 88.284 10.420L88.284 10.420L88.160 8.993L90.302 8.993L90.302 16.225ZM97.690 31L91.326 31L91.326 29.231Q92.196 29.231 92.723 28.734Q93.251 28.237 93.592 27.415Q93.934 26.592 94.306 25.568L94.306 25.568L100.483 8.713L102.159 8.713L108.895 25.878Q109.081 26.406 109.392 27.368Q109.702 28.331 109.733 29.044L109.733 29.044Q110.261 29.013 110.757 28.982Q111.254 28.951 111.627 28.951L111.627 28.951L111.627 31L103.711 31L103.711 29.293Q104.674 29.293 105.015 28.889Q105.356 28.486 105.310 27.834Q105.263 27.182 104.984 26.499L104.984 26.499L104.208 24.388L97.007 24.513L96.324 26.592Q96.138 27.120 95.889 27.787Q95.641 28.455 95.393 28.982L95.393 28.982Q95.951 28.951 96.619 28.920Q97.286 28.889 97.690 28.889L97.690 28.889L97.690 31ZM99.366 17.746L97.690 22.526L103.525 22.526L101.849 17.963Q101.476 16.908 101.151 15.837Q100.825 14.766 100.607 13.866L100.607 13.866L100.545 13.866Q100.359 14.487 100.095 15.480Q99.831 16.473 99.366 17.746L99.366 17.746ZM120.908 31L112.434 31L112.434 29.293Q113.303 29.262 113.768 28.998Q114.234 28.734 114.420 28.067Q114.606 27.399 114.606 26.220L114.606 26.220L114.606 13.835Q114.606 13.059 114.653 12.345Q114.700 11.631 114.731 11.228L114.731 11.228Q114.203 11.259 113.520 11.274Q112.837 11.290 112.434 11.321L112.434 11.321L112.434 9.272Q114.482 9.241 116.546 9.225Q118.611 9.210 120.659 9.210L120.659 9.210Q123.484 9.210 125.455 9.862Q127.426 10.514 128.435 11.895Q129.444 13.276 129.412 15.511L129.412 15.511Q129.381 16.784 128.823 17.994Q128.264 19.205 127.053 20.136Q125.843 21.067 123.825 21.595L123.825 21.595Q124.415 21.905 124.958 22.495Q125.501 23.085 125.967 23.799L125.967 23.799L127.643 26.375Q128.264 27.337 128.792 27.974Q129.319 28.610 129.878 28.936Q130.437 29.262 131.213 29.293L131.213 29.293L131.213 31L126.495 31Q125.843 30.472 125.269 29.696Q124.694 28.920 124.074 27.896L124.074 27.896L121.839 24.326Q121.435 23.675 121.078 23.100Q120.721 22.526 120.287 22.123L120.287 22.123Q119.790 22.154 119.387 22.154Q118.983 22.154 118.517 22.123L118.517 22.123L118.517 26.344Q118.517 27.213 118.486 27.927Q118.455 28.641 118.393 29.044L118.393 29.044Q118.735 29.013 119.216 28.998Q119.697 28.982 120.163 28.967Q120.628 28.951 120.908 28.951L120.908 28.951L120.908 31ZM120.132 20.260L120.132 20.260Q121.870 20.229 123.003 19.732Q124.136 19.236 124.710 18.180Q125.284 17.125 125.284 15.480L125.284 15.480Q125.284 14.083 124.865 13.214Q124.446 12.345 123.748 11.879Q123.049 11.414 122.227 11.243Q121.404 11.072 120.597 11.072L120.597 11.072Q119.790 11.072 119.324 11.321Q118.859 11.569 118.688 12.205Q118.517 12.842 118.517 13.928L118.517 13.928L118.517 20.167Q118.890 20.198 119.293 20.229Q119.697 20.260 120.132 20.260ZM144.684 23.333L142.977 23.333Q142.977 21.998 142.589 21.409Q142.201 20.819 141.472 20.695Q140.742 20.571 139.718 20.602L139.718 20.602L138.445 20.664L138.445 26.406Q138.445 27.244 138.414 27.943Q138.383 28.641 138.321 29.044L138.321 29.044L143.070 29.013Q144.156 29.013 145.057 28.594Q145.957 28.175 146.516 27.167Q147.074 26.158 147.074 24.420L147.074 24.420L148.781 24.420L148.626 31L132.361 31L132.361 29.293Q133.230 29.262 133.696 28.998Q134.162 28.734 134.348 28.067Q134.534 27.399 134.534 26.220L134.534 26.220L134.534 13.835Q134.534 13.059 134.581 12.345Q134.627 11.631 134.658 11.228L134.658 11.228Q134.131 11.259 133.448 11.274Q132.765 11.290 132.361 11.321L132.361 11.321L132.361 9.272L147.664 9.272L147.850 15.108L146.143 15.108Q146.143 13.338 145.569 12.454Q144.995 11.569 144.094 11.259Q143.194 10.948 142.232 10.979L142.232 10.979L140.618 11.010Q139.780 11.041 139.314 11.290Q138.849 11.538 138.647 12.174Q138.445 12.811 138.445 14.052L138.445 14.052L138.445 18.801L142.791 18.832L142.636 16.132L144.684 16.132L144.684 23.333Z"/></g><g fill="#6B6860"><path d="M2.431 48.500L1.675 48.500L1.675 42.200L2.557 42.200L4.780 46.601L4.780 46.601L7.012 42.200L7.903 42.200L7.903 48.500L7.147 48.500L7.147 43.550L7.147 43.550L5.068 47.618L4.501 47.618L2.431 43.568L2.431 43.568L2.431 48.500ZM11.611 48.500L10.819 48.500L13.141 42.200L13.942 42.200L16.255 48.500L15.454 48.500L13.537 43.145L13.537 43.145L11.611 48.500ZM15.166 46.880L11.881 46.880L12.097 46.268L14.950 46.268L15.166 46.880ZM19.936 48.500L19.180 48.500L19.180 42.200L19.936 42.200L23.293 47.249L23.293 47.249L23.293 42.200L24.049 42.200L24.049 48.500L23.293 48.500L19.936 43.451L19.936 43.451L19.936 48.500ZM29.611 48.500L28.855 48.500L28.855 42.821L26.974 42.821L26.974 42.200L31.492 42.200L31.492 42.821L29.611 42.821L29.611 48.500ZM38.305 48.500L34.408 48.500L34.408 42.200L38.305 42.200L38.305 42.821L35.164 42.821L35.164 45.017L38.035 45.017L38.035 45.629L35.164 45.629L35.164 47.879L38.305 47.879L38.305 48.500ZM42.229 48.500L41.473 48.500L41.473 42.200L42.229 42.200L45.586 47.249L45.586 47.249L45.586 42.200L46.342 42.200L46.342 48.500L45.586 48.500L42.229 43.451L42.229 43.451L42.229 48.500ZM50.428 48.500L49.672 48.500L49.672 42.200L50.428 42.200L50.428 48.500ZM54.514 48.500L53.758 48.500L53.758 42.200L54.640 42.200L56.863 46.601L56.863 46.601L59.095 42.200L59.986 42.200L59.986 48.500L59.230 48.500L59.230 43.550L59.230 43.550L57.151 47.618L56.584 47.618L54.514 43.568L54.514 43.568L54.514 48.500ZM64.063 48.500L63.307 48.500L63.307 42.200L64.063 42.200L64.063 48.500ZM71.290 48.500L67.393 48.500L67.393 42.200L71.290 42.200L71.290 42.821L68.149 42.821L68.149 45.017L71.020 45.017L71.020 45.629L68.149 45.629L68.149 47.879L71.290 47.879L71.290 48.500ZM75.214 48.500L74.458 48.500L74.458 42.200L75.214 42.200L78.571 47.249L78.571 47.249L78.571 42.200L79.327 42.200L79.327 48.500L78.571 48.500L75.214 43.451L75.214 43.451L75.214 48.500ZM84.889 48.500L84.133 48.500L84.133 42.821L82.252 42.821L82.252 42.200L86.770 42.200L86.770 42.821L84.889 42.821L84.889 48.500ZM92.494 48.608L92.494 48.608Q91.585 48.608 90.896 48.199Q90.208 47.789 89.825 47.056Q89.443 46.322 89.443 45.350L89.443 45.350Q89.443 44.387 89.825 43.654Q90.208 42.920 90.896 42.506Q91.585 42.092 92.494 42.092L92.494 42.092Q93.421 42.092 94.105 42.506Q94.789 42.920 95.171 43.654Q95.554 44.387 95.554 45.350L95.554 45.350Q95.554 46.322 95.171 47.056Q94.789 47.789 94.105 48.199Q93.421 48.608 92.494 48.608ZM92.494 47.942L92.494 47.942Q93.178 47.942 93.695 47.632Q94.213 47.321 94.496 46.740Q94.780 46.160 94.780 45.350L94.780 45.350Q94.780 44.540 94.496 43.959Q94.213 43.379 93.695 43.073Q93.178 42.767 92.494 42.767L92.494 42.767Q91.819 42.767 91.301 43.073Q90.784 43.379 90.501 43.959Q90.217 44.540 90.217 45.350L90.217 45.350Q90.217 46.160 90.501 46.740Q90.784 47.321 91.301 47.632Q91.819 47.942 92.494 47.942ZM106.903 48.500L103.006 48.500L103.006 42.200L106.903 42.200L106.903 42.821L103.762 42.821L103.762 45.017L106.633 45.017L106.633 45.629L103.762 45.629L103.762 47.879L106.903 47.879L106.903 48.500ZM111.925 48.500L110.071 48.500L110.071 42.200L111.925 42.200Q113.032 42.200 113.747 42.582Q114.463 42.965 114.809 43.672Q115.156 44.378 115.156 45.368L115.156 45.368Q115.156 46.340 114.809 47.042Q114.463 47.744 113.747 48.122Q113.032 48.500 111.925 48.500L111.925 48.500ZM110.827 42.830L110.827 47.870L111.907 47.870Q112.825 47.870 113.365 47.569Q113.905 47.267 114.139 46.705Q114.373 46.142 114.373 45.368L114.373 45.368Q114.373 44.576 114.139 44.009Q113.905 43.442 113.365 43.136Q112.825 42.830 111.907 42.830L111.907 42.830L110.827 42.830ZM118.999 48.500L118.243 48.500L118.243 42.200L118.999 42.200L118.999 48.500ZM126.019 48.500L122.329 48.500L122.329 42.200L123.085 42.200L123.085 47.897L126.019 47.897L126.019 48.500ZM129.808 48.500L129.052 48.500L129.052 42.200L129.808 42.200L129.808 48.500ZM135.874 48.608L135.874 48.608Q134.956 48.608 134.285 48.199Q133.615 47.789 133.255 47.056Q132.895 46.322 132.895 45.350L132.895 45.350Q132.895 44.378 133.255 43.645Q133.615 42.911 134.285 42.502Q134.956 42.092 135.874 42.092L135.874 42.092Q136.954 42.092 137.629 42.605Q138.304 43.118 138.493 44.054L138.493 44.054L137.656 44.054Q137.512 43.469 137.071 43.114Q136.630 42.758 135.874 42.758L135.874 42.758Q135.199 42.758 134.704 43.069Q134.209 43.379 133.939 43.959Q133.669 44.540 133.669 45.350L133.669 45.350Q133.669 46.160 133.939 46.740Q134.209 47.321 134.704 47.632Q135.199 47.942 135.874 47.942L135.874 47.942Q136.630 47.942 137.071 47.596Q137.512 47.249 137.656 46.673L137.656 46.673L138.493 46.673Q138.304 47.582 137.629 48.095Q136.954 48.608 135.874 48.608ZM142.327 48.500L141.571 48.500L141.571 42.200L142.327 42.200L142.327 48.500ZM148.465 48.608L148.465 48.608Q147.556 48.608 146.868 48.199Q146.179 47.789 145.797 47.056Q145.414 46.322 145.414 45.350L145.414 45.350Q145.414 44.387 145.797 43.654Q146.179 42.920 146.868 42.506Q147.556 42.092 148.465 42.092L148.465 42.092Q149.392 42.092 150.076 42.506Q150.760 42.920 151.143 43.654Q151.525 44.387 151.525 45.350L151.525 45.350Q151.525 46.322 151.143 47.056Q150.760 47.789 150.076 48.199Q149.392 48.608 148.465 48.608ZM148.465 47.942L148.465 47.942Q149.149 47.942 149.667 47.632Q150.184 47.321 150.468 46.740Q150.751 46.160 150.751 45.350L150.751 45.350Q150.751 44.540 150.468 43.959Q150.184 43.379 149.667 43.073Q149.149 42.767 148.465 42.767L148.465 42.767Q147.790 42.767 147.273 43.073Q146.755 43.379 146.471 43.959Q146.188 44.540 146.188 45.350L146.188 45.350Q146.188 46.160 146.471 46.740Q146.755 47.321 147.273 47.632Q147.790 47.942 148.465 47.942Z"/></g></svg>
