<svg xmlns="http://www.w3.org/2000/svg" viewBox="0 0 32 32" role="img" aria-label="Edilcare">
  <path
    fill="#1F3D30"
    transform="translate(5 -4)"
    d="M14.937 23.333L13.230 23.333Q13.230 21.998 12.842 21.409Q12.454 20.819 11.724 20.695Q10.995 20.571 9.971 20.602L9.971 20.602L8.698 20.664L8.698 26.406Q8.698 27.244 8.667 27.943Q8.636 28.641 8.574 29.044L8.574 29.044L13.323 29.013Q14.409 29.013 15.309 28.594Q16.210 28.175 16.768 27.167Q17.327 26.158 17.327 24.420L17.327 24.420L19.034 24.420L18.879 31L2.614 31L2.614 29.293Q3.483 29.262 3.949 28.998Q4.414 28.734 4.601 28.067Q4.787 27.399 4.787 26.220L4.787 26.220L4.787 13.835Q4.787 13.059 4.833 12.345Q4.880 11.631 4.911 11.228L4.911 11.228Q4.383 11.259 3.700 11.274Q3.018 11.290 2.614 11.321L2.614 11.321L2.614 9.272L17.917 9.272L18.103 15.108L16.396 15.108Q16.396 13.338 15.822 12.454Q15.247 11.569 14.347 11.259Q13.447 10.948 12.485 10.979L12.485 10.979L10.871 11.010Q10.033 11.041 9.567 11.290Q9.101 11.538 8.900 12.174Q8.698 12.811 8.698 14.052L8.698 14.052L8.698 18.801L13.044 18.832L12.888 16.132L14.937 16.132L14.937 23.333Z"
  />
</svg>
